<svg width="150" height="88" viewBox="0 0 150 88" fill="none" xmlns="http://www.w3.org/2000/svg">
<path d="M62.5 14L73.5 4C54.7 8.4 45.3333 21.5 43 27.5L54 20.5L62.5 29V14Z" fill="#F8EB11"/>
<path d="M57.5 0L53 9.5L43 10.5L48 17.5C48 17.5 53 9.5 61 7L57.5 0Z" fill="#2BAAE1"/>
<path d="M20 30H0V88H20V38.5L43 59.5V79.5C43 83.5 38.6667 85.1667 36.5 85.5V88H66V38.5L86 59.5V79.5C86 83.5 82.6667 85.1667 81 85.5V88H106.5V30H86V52L66 30H43V52L20 30Z" fill="#E10A0C"/>
<path d="M130 30H108V59H110V33C110 33 127.777 34.9056 131 43.5C132.5 47.5 130 49.5 128.5 50H113V56H123C128.2 56 129.833 60.3333 130 62.5V79.5C130 82.7 125.333 84.8333 123 85.5V88H150V47.5C150 37.9 136.667 31.8333 130 30Z" fill="#E10A0C"/>
</svg>
